<?xml version="1.0" encoding="UTF-8"?><svg id="Layer_1" xmlns="http://www.w3.org/2000/svg" viewBox="0 0 235.66 235.66"><defs><style>.cls-1{fill:none;stroke:#0d5971;stroke-miterlimit:10;stroke-width:4.59px;}.cls-2{fill:#94d2e5;}.cls-2,.cls-3,.cls-4,.cls-5,.cls-6{stroke-width:0px;}.cls-3{fill:#0d5971;}.cls-4{fill:#15aae2;}.cls-5{fill:#f38821;}.cls-6{fill:#fff;}</style></defs><circle class="cls-1" cx="117.83" cy="117.83" r="115.53"/><circle class="cls-2" cx="117.73" cy="117.66" r="91.71"/><path class="cls-4" d="M208.36,133.49c-.2,1.17-.42,2.32-.67,3.47.24-1.15.47-2.31.67-3.47Z"/><path class="cls-4" d="M208.28,133.51s.05-.01.08-.02c.23-1.33.43-2.67.6-4.03l-.69,4.05Z"/><path class="cls-4" d="M209.65,120.72h0c.03-.96.05-1.91.05-2.88,0,.96-.02,1.92-.05,2.88Z"/><path class="cls-3" d="M27.37,133.87c-.26-1.47-.5-2.95-.69-4.44,4.03-1.33,7.7-3.24,10.75-5.93,10.31-9.1,13.62-21.49,21.23-32.76,5.92-8.76,18.98-21.96,30.73-11.92,2.54,2.35,4.28,4.91,5.72,7.64,3.36-6.33,7.11-12.47,11.91-17.96,11.26-12.86,26.72-12.86,35.91,2.57,5.77,9.68,9.17,20.33,12.08,31.14,2.47-2.33,5.45-4,9.14-4.55,5.5-.61,11.52,2.36,14.81,6.37,3.71,4.29,5.68,8.83,7.59,13.11.71,1.41,1.44,3.25,2.24,5.21,4.39-4.09,9.39-7.19,15.5-6.59,1.89.04,3.67.38,5.37.92-.62-50.21-41.5-90.72-91.86-90.72S25.96,67.09,25.96,117.83c0,5.47.48,10.84,1.4,16.05h.01Z"/><path class="cls-5" d="M206.85,140.62c-8.19,2.65-14,1.96-18.99-3.53-.83,1.09-1.67,2.17-2.52,3.2-4.6,5.71-11.95,14.04-20.78,11.69-5.69-1.86-9.53-8.86-12.37-16.46-.57,2.15-1.04,3.93-1.4,5.04-2.5,9.13-4.73,18.11-8.59,27.02-3.39,8.35-11.35,18.49-21.92,15.41-12.34-4.13-16.17-23-19.39-33.98-2.28-9.06-4.21-18.04-6.15-26.92-.72-3.22-1.44-6.45-2.21-9.64-4.43,11.03-10.18,19.64-18.38,27.11-5.94,5.37-15.56,7.99-23.06,8.49-6.99.47-14.21-.14-20.88-2.55,11.75,37.21,46.53,64.18,87.62,64.18s79.06-29.51,89.09-69.37c-.02.1-.05.19-.07.29Z"/><path class="cls-4" d="M207.28,138.83c.11-.46.21-.92.31-1.39-.1.46-.2.93-.31,1.39Z"/><path class="cls-4" d="M27.89,136.64c.63,3.01,1.4,5.97,2.32,8.87-.31-1-.61-2-.89-3.01h0s-.03-.12-.03-.12c-.05-.2-.11-.39-.16-.59,0,0,.02,0,.02,0l-1.26-5.16Z"/><path class="cls-4" d="M209.46,123.16l-.49,6.28c.36-2.86.59-5.76.68-8.69v.02c-.03.8-.06,1.6-.11,2.4-.03,0-.05-.01-.08-.02Z"/><path class="cls-6" d="M198.52,134.98c-2.27-.24-4.12-1.99-5.68-4.36,1.82-2.24,3.72-4.35,5.83-6.08,1.96-1.5,3.1-1.93,5.44-1.94,1.84-.12,3.65.13,5.43.58.1-1.77.16-3.55.16-5.35,0-.39,0-.77-.01-1.15-1.7-.54-3.48-.89-5.37-.92-6.11-.61-11.11,2.5-15.5,6.59-.8-1.96-1.53-3.8-2.24-5.21-1.92-4.28-3.88-8.82-7.59-13.11-3.29-4.01-9.31-6.98-14.81-6.37-3.69.55-6.67,2.23-9.14,4.55-2.92-10.81-6.31-21.46-12.08-31.14-9.19-15.42-24.66-15.43-35.91-2.57-4.81,5.49-8.55,11.63-11.91,17.96-1.44-2.72-3.18-5.29-5.72-7.64-11.75-10.04-24.81,3.16-30.73,11.92-7.61,11.27-10.92,23.66-21.23,32.76-3.05,2.69-6.72,4.61-10.75,5.93.24,1.93.55,3.84.91,5.74,5.56-.88,10.95-2.57,15.6-5.3,8.8-5.16,12.94-13.47,17.59-21.54,4.55-7.89,15.39-25.17,20.45-22.76,3.56,1.7,5.02,6.95,6.58,10.78.36.97.7,1.96,1.03,2.96-2.79,6.04-5.49,12.1-8.53,17.95-3.9,7.46-8.2,15.22-15.28,19.9-4.09,2.71-9.1,4.25-14.12,5.14-6.89,1.22-14.15,1.84-20.86-.19-.31-.1-.63-.2-.94-.3.34,1.25.7,2.49,1.09,3.72,6.67,2.41,13.89,3.02,20.88,2.55,7.49-.51,17.11-3.13,23.06-8.49,8.2-7.47,13.95-16.08,18.38-27.11.77,3.19,1.49,6.41,2.21,9.64,1.95,8.88,3.88,17.86,6.15,26.92,3.22,10.98,7.05,29.85,19.39,33.98,10.58,3.07,18.54-7.06,21.92-15.41,3.86-8.91,6.1-17.89,8.59-27.02.36-1.12.83-2.89,1.4-5.04,2.84,7.61,6.68,14.61,12.37,16.46,8.83,2.35,16.18-5.98,20.78-11.69.86-1.04,1.69-2.12,2.52-3.2,4.99,5.48,10.8,6.17,18.99,3.53.6-2.34,1.1-4.72,1.51-7.12-3.48.82-6.76,1.61-9.84,1.49ZM143.58,124.06c-3.71,9.16-11.53,43.34-20.3,43.12-9.78-.25-13.99-36.81-17.19-47.77-1.77-6.88-3.53-13.79-5.9-20.74,7.02-12.62,22.52-36.27,32.8-17.34,6.63,11.54,9.49,22.18,13.36,35.29-1.02,2.59-1.92,5.15-2.76,7.44ZM177.97,133.93c-9.69,9.69-11.5,5.68-12.11,4.33-3.22-7.06-5.21-14.68-7.23-22.31,2.6-5.52,5.77-9.29,9.48-7.74,5.12,1.97,7.5,7.47,10.31,12.72,1.33,2.6,2.57,5.33,4.05,8.1-1.55,1.75-3.04,3.43-4.51,4.9Z"/></svg>